<svg width="64" height="64" viewBox="0 0 64 64" fill="none" xmlns="http://www.w3.org/2000/svg">
<path d="M24.9204 51.6228L12.8552 40L6.79129 57.8854L24.9204 51.6228Z" fill="#6464F9"/>
<path d="M56.2415 20.9825C54.1553 15.8368 50.3494 11.5737 45.4723 8.91952C40.5952 6.26535 34.9487 5.38434 29.4949 6.42663C24.0411 7.46891 19.1174 10.37 15.5627 14.6355C12.0081 18.9011 10.0424 24.2672 10.0007 29.8196C9.95894 35.372 11.8437 40.767 15.3338 45.0856C18.824 49.4041 23.7035 52.3788 29.141 53.503C34.5786 54.6271 40.2377 53.8311 45.1541 51.2506C50.0705 48.67 53.9401 44.4646 56.1034 39.3508L45.9529 35.0566C44.783 37.822 42.6905 40.0962 40.0318 41.4917C37.3732 42.8872 34.3129 43.3176 31.3724 42.7097C28.4319 42.1018 25.7932 40.4932 23.9059 38.1578C22.0185 35.8225 20.9993 32.905 21.0219 29.9024C21.0444 26.8999 22.1074 23.998 24.0296 21.6913C25.9519 19.3846 28.6145 17.8158 31.5638 17.2522C34.513 16.6886 37.5665 17.165 40.2039 18.6003C42.8413 20.0356 44.8994 22.341 46.0276 25.1236L56.2415 20.9825Z" fill="#6464F9"/>
</svg>
